<svg xmlns="http://www.w3.org/2000/svg" viewBox="0 0 640 400" width="640" height="400" role="img"><title>A close-up picture of a fuzzy striped bee standing on a big pink flower. Clumps of yellow dust from the flower are stuck to the bee's back legs and body.</title><style>.k0{stroke:#24323f;stroke-width:2}.k1{stroke:#4f8a5b;stroke-width:12;stroke-linecap:round;stroke-linejoin:round}.k2{stroke:#24323f;stroke-width:2;stroke-linecap:round;stroke-linejoin:round}.k3{stroke:#24323f;stroke-width:2.5}.k4{stroke:#24323f;stroke-width:6;stroke-linecap:round}.k5{stroke:#24323f;stroke-width:1.5}.k6{stroke:#24323f;stroke-width:3}.k7{stroke:#24323f;stroke-width:2.5;stroke-linecap:round;stroke-linejoin:round}.k8{stroke:#24323f;stroke-width:4;stroke-linecap:round;stroke-linejoin:round}</style><rect x="0" y="0" width="640" height="400" fill="#e6f4e1"/><g transform="translate(90,70) scale(0.8)"><ellipse cx="0" cy="0" rx="40" ry="18" fill="#ffffff" class="k0"/><circle cx="-16" cy="-10" r="16" fill="#ffffff" class="k0"/><circle cx="12" cy="-14" r="20" fill="#ffffff" class="k0"/><ellipse cx="0" cy="2" rx="38" ry="15" fill="#ffffff"/></g><g transform="translate(560,90) scale(0.7)"><ellipse cx="0" cy="0" rx="40" ry="18" fill="#ffffff" class="k0"/><circle cx="-16" cy="-10" r="16" fill="#ffffff" class="k0"/><circle cx="12" cy="-14" r="20" fill="#ffffff" class="k0"/><ellipse cx="0" cy="2" rx="38" ry="15" fill="#ffffff"/></g><path d="M320 400 Q312 330 320 290" fill="none" class="k1"/><path d="M318 360 Q250 330 230 350 Q270 380 318 368 Z" fill="#5d9e63" class="k2"/><ellipse cx="412" cy="255" rx="62" ry="30" fill="#f28dae" class="k0" transform="rotate(0 412.0 255.0)"/><ellipse cx="394.4" cy="285.5" rx="62" ry="30" fill="#f28dae" class="k0" transform="rotate(36 394.4 285.6)"/><ellipse cx="348.4" cy="304.4" rx="62" ry="30" fill="#f28dae" class="k0" transform="rotate(72 348.4 304.5)"/><ellipse cx="291.5" cy="304.4" rx="62" ry="30" fill="#f28dae" class="k0" transform="rotate(108 291.6 304.5)"/><ellipse cx="245.5" cy="285.5" rx="62" ry="30" fill="#f28dae" class="k0" transform="rotate(144 245.6 285.6)"/><ellipse cx="228" cy="255" rx="62" ry="30" fill="#f28dae" class="k0" transform="rotate(180 228.0 255.0)"/><ellipse cx="245.5" cy="224.4" rx="62" ry="30" fill="#f28dae" class="k0" transform="rotate(216 245.6 224.4)"/><ellipse cx="291.5" cy="205.5" rx="62" ry="30" fill="#f28dae" class="k0" transform="rotate(252 291.6 205.5)"/><ellipse cx="348.4" cy="205.5" rx="62" ry="30" fill="#f28dae" class="k0" transform="rotate(288 348.4 205.5)"/><ellipse cx="394.4" cy="224.4" rx="62" ry="30" fill="#f28dae" class="k0" transform="rotate(324 394.4 224.4)"/><ellipse cx="320" cy="255" rx="70" ry="36" fill="#f6b23c" class="k3"/><circle cx="280" cy="249" r="3.5" fill="#d68a1a"/><circle cx="300" cy="265" r="3.5" fill="#d68a1a"/><circle cx="320" cy="245" r="3.5" fill="#d68a1a"/><circle cx="342" cy="263" r="3.5" fill="#d68a1a"/><circle cx="364" cy="251" r="3.5" fill="#d68a1a"/><circle cx="312" cy="271" r="3.5" fill="#d68a1a"/><circle cx="350" cy="239" r="3.5" fill="#d68a1a"/><ellipse cx="290" cy="132" rx="48" ry="64" fill="#ffffff" class="k0" opacity="0.8" transform="rotate(-25 290 132)"/><ellipse cx="350" cy="128" rx="44" ry="60" fill="#ffffff" class="k0" opacity="0.8" transform="rotate(20 350 128)"/><line x1="270" y1="215" x2="252" y2="250" class="k4"/><line x1="310" y1="222" x2="304" y2="254" class="k4"/><line x1="352" y1="220" x2="362" y2="252" class="k4"/><ellipse cx="252" cy="238" rx="18" ry="14" fill="#ffd23f" class="k0"/><ellipse cx="304" cy="244" rx="12" ry="9" fill="#ffd23f" class="k5"/><ellipse cx="320" cy="186" rx="82" ry="46" fill="#ffc93c" class="k6"/><path d="M282 142 Q292 186 282 230 L300 230 Q310 186 300 142 Z" fill="#24323f" opacity="0.9"/><path d="M318 142 Q328 186 318 230 L336 230 Q346 186 336 142 Z" fill="#24323f" opacity="0.9"/><path d="M354 142 Q364 186 354 230 L372 230 Q382 186 372 142 Z" fill="#24323f" opacity="0.9"/><path d="M240 186 L222 192 L240 198 Z" fill="#24323f" class="k7"/><circle cx="410" cy="176" r="32" fill="#24323f"/><circle cx="422" cy="166" r="9" fill="#ffffff"/><circle cx="425" cy="165" r="4" fill="#24323f"/><path d="M420 148 Q430 112 452 104 M404 146 Q404 110 420 96" fill="none" class="k8"/><circle cx="452" cy="104" r="5" fill="#24323f"/><circle cx="420" cy="96" r="5" fill="#24323f"/><circle cx="260" cy="156" r="3" fill="#ffd23f"/><circle cx="290" cy="146" r="3" fill="#ffd23f"/><circle cx="330" cy="144" r="3" fill="#ffd23f"/><circle cx="370" cy="152" r="3" fill="#ffd23f"/><circle cx="250" cy="196" r="3" fill="#ffd23f"/><circle cx="380" cy="206" r="3" fill="#ffd23f"/><circle cx="280" cy="224" r="3" fill="#ffd23f"/><circle cx="340" cy="228" r="3" fill="#ffd23f"/></svg>
