<svg xmlns="http://www.w3.org/2000/svg" viewBox="0 0 160 120" role="img" aria-labelledby="t">
<title id="t">Area: square units filling a rectangle</title>
<rect x="0" y="0" width="160" height="120" rx="10" fill="#f7f4ec"/>
<rect x="45" y="39" width="14" height="14" fill="#1fa6a2" stroke="#ffffff" stroke-width="1.5"/><rect x="59" y="39" width="14" height="14" fill="#1fa6a2" stroke="#ffffff" stroke-width="1.5"/><rect x="73" y="39" width="14" height="14" fill="#1fa6a2" stroke="#ffffff" stroke-width="1.5"/><rect x="87" y="39" width="14" height="14" fill="#1fa6a2" stroke="#ffffff" stroke-width="1.5"/><rect x="101" y="39" width="14" height="14" fill="#1fa6a2" stroke="#ffffff" stroke-width="1.5"/><rect x="45" y="53" width="14" height="14" fill="#1fa6a2" stroke="#ffffff" stroke-width="1.5"/><rect x="59" y="53" width="14" height="14" fill="#1fa6a2" stroke="#ffffff" stroke-width="1.5"/><rect x="73" y="53" width="14" height="14" fill="#1fa6a2" stroke="#ffffff" stroke-width="1.5"/><rect x="87" y="53" width="14" height="14" fill="#1fa6a2" stroke="#ffffff" stroke-width="1.5"/><rect x="101" y="53" width="14" height="14" fill="#1fa6a2" stroke="#ffffff" stroke-width="1.5"/><rect x="45" y="67" width="14" height="14" fill="#1fa6a2" stroke="#ffffff" stroke-width="1.5"/><rect x="59" y="67" width="14" height="14" fill="#1fa6a2" stroke="#ffffff" stroke-width="1.5"/><rect x="73" y="67" width="14" height="14" fill="#1fa6a2" stroke="#ffffff" stroke-width="1.5"/><rect x="87" y="67" width="14" height="14" fill="#1fa6a2" stroke="#ffffff" stroke-width="1.5"/><rect x="101" y="67" width="14" height="14" fill="#1fa6a2" stroke="#ffffff" stroke-width="1.5"/><text x="80" y="112" font-family="Outfit, system-ui, sans-serif" font-size="11" font-weight="800" fill="#12355b" text-anchor="middle">Area = 15 square units</text>
</svg>
