<svg xmlns="http://www.w3.org/2000/svg" viewBox="0 0 160 120" role="img" aria-labelledby="t">
<title id="t">Measurement concept</title>
<rect x="0" y="0" width="160" height="120" rx="10" fill="#f7f4ec"/>
<rect x="20" y="50" width="120" height="22" rx="4" fill="#f2c15b"/>
<line x1="24" y1="50" x2="24" y2="64" stroke="#12355b" stroke-width="1.2"/><line x1="33.3" y1="50" x2="33.3" y2="60" stroke="#12355b" stroke-width="1.2"/><line x1="42.6" y1="50" x2="42.6" y2="64" stroke="#12355b" stroke-width="1.2"/><line x1="51.900000000000006" y1="50" x2="51.900000000000006" y2="60" stroke="#12355b" stroke-width="1.2"/><line x1="61.2" y1="50" x2="61.2" y2="64" stroke="#12355b" stroke-width="1.2"/><line x1="70.5" y1="50" x2="70.5" y2="60" stroke="#12355b" stroke-width="1.2"/><line x1="79.80000000000001" y1="50" x2="79.80000000000001" y2="64" stroke="#12355b" stroke-width="1.2"/><line x1="89.10000000000001" y1="50" x2="89.10000000000001" y2="60" stroke="#12355b" stroke-width="1.2"/><line x1="98.4" y1="50" x2="98.4" y2="64" stroke="#12355b" stroke-width="1.2"/><line x1="107.7" y1="50" x2="107.7" y2="60" stroke="#12355b" stroke-width="1.2"/><line x1="117" y1="50" x2="117" y2="64" stroke="#12355b" stroke-width="1.2"/><line x1="126.30000000000001" y1="50" x2="126.30000000000001" y2="60" stroke="#12355b" stroke-width="1.2"/><line x1="135.60000000000002" y1="50" x2="135.60000000000002" y2="64" stroke="#12355b" stroke-width="1.2"/>
<text x="80" y="96" font-family="Outfit, system-ui, sans-serif" font-size="10" font-weight="800" fill="#12355b" text-anchor="middle">measurement</text>
</svg>
