<svg xmlns="http://www.w3.org/2000/svg" viewBox="0 0 160 120" role="img" aria-labelledby="t">
<title id="t">Decimal: tenths and hundredths grid</title>
<rect x="0" y="0" width="160" height="120" rx="10" fill="#f7f4ec"/>
<g><rect x="30" y="20" width="9" height="7" fill="#1fa6a2" stroke="#d7e2ed" stroke-width="0.6"/><rect x="40" y="20" width="9" height="7" fill="#1fa6a2" stroke="#d7e2ed" stroke-width="0.6"/><rect x="50" y="20" width="9" height="7" fill="#1fa6a2" stroke="#d7e2ed" stroke-width="0.6"/><rect x="60" y="20" width="9" height="7" fill="#1fa6a2" stroke="#d7e2ed" stroke-width="0.6"/><rect x="70" y="20" width="9" height="7" fill="#1fa6a2" stroke="#d7e2ed" stroke-width="0.6"/><rect x="80" y="20" width="9" height="7" fill="#1fa6a2" stroke="#d7e2ed" stroke-width="0.6"/><rect x="90" y="20" width="9" height="7" fill="#1fa6a2" stroke="#d7e2ed" stroke-width="0.6"/><rect x="100" y="20" width="9" height="7" fill="#1fa6a2" stroke="#d7e2ed" stroke-width="0.6"/><rect x="110" y="20" width="9" height="7" fill="#1fa6a2" stroke="#d7e2ed" stroke-width="0.6"/><rect x="120" y="20" width="9" height="7" fill="#1fa6a2" stroke="#d7e2ed" stroke-width="0.6"/><rect x="30" y="28" width="9" height="7" fill="#1fa6a2" stroke="#d7e2ed" stroke-width="0.6"/><rect x="40" y="28" width="9" height="7" fill="#1fa6a2" stroke="#d7e2ed" stroke-width="0.6"/><rect x="50" y="28" width="9" height="7" fill="#1fa6a2" stroke="#d7e2ed" stroke-width="0.6"/><rect x="60" y="28" width="9" height="7" fill="#1fa6a2" stroke="#d7e2ed" stroke-width="0.6"/><rect x="70" y="28" width="9" height="7" fill="#1fa6a2" stroke="#d7e2ed" stroke-width="0.6"/><rect x="80" y="28" width="9" height="7" fill="#1fa6a2" stroke="#d7e2ed" stroke-width="0.6"/><rect x="90" y="28" width="9" height="7" fill="#1fa6a2" stroke="#d7e2ed" stroke-width="0.6"/><rect x="100" y="28" width="9" height="7" fill="#1fa6a2" stroke="#d7e2ed" stroke-width="0.6"/><rect x="110" y="28" width="9" height="7" fill="#1fa6a2" stroke="#d7e2ed" stroke-width="0.6"/><rect x="120" y="28" width="9" height="7" fill="#1fa6a2" stroke="#d7e2ed" stroke-width="0.6"/><rect x="30" y="36" width="9" height="7" fill="#1fa6a2" stroke="#d7e2ed" stroke-width="0.6"/><rect x="40" y="36" width="9" height="7" fill="#1fa6a2" stroke="#d7e2ed" stroke-width="0.6"/><rect x="50" y="36" width="9" height="7" fill="#1fa6a2" stroke="#d7e2ed" stroke-width="0.6"/><rect x="60" y="36" width="9" height="7" fill="#1fa6a2" stroke="#d7e2ed" stroke-width="0.6"/><rect x="70" y="36" width="9" height="7" fill="#1fa6a2" stroke="#d7e2ed" stroke-width="0.6"/><rect x="80" y="36" width="9" height="7" fill="#1fa6a2" stroke="#d7e2ed" stroke-width="0.6"/><rect x="90" y="36" width="9" height="7" fill="#1fa6a2" stroke="#d7e2ed" stroke-width="0.6"/><rect x="100" y="36" width="9" height="7" fill="#1fa6a2" stroke="#d7e2ed" stroke-width="0.6"/><rect x="110" y="36" width="9" height="7" fill="#1fa6a2" stroke="#d7e2ed" stroke-width="0.6"/><rect x="120" y="36" width="9" height="7" fill="#1fa6a2" stroke="#d7e2ed" stroke-width="0.6"/><rect x="30" y="44" width="9" height="7" fill="#1fa6a2" stroke="#d7e2ed" stroke-width="0.6"/><rect x="40" y="44" width="9" height="7" fill="#1fa6a2" stroke="#d7e2ed" stroke-width="0.6"/><rect x="50" y="44" width="9" height="7" fill="#1fa6a2" stroke="#d7e2ed" stroke-width="0.6"/><rect x="60" y="44" width="9" height="7" fill="#1fa6a2" stroke="#d7e2ed" stroke-width="0.6"/><rect x="70" y="44" width="9" height="7" fill="#1fa6a2" stroke="#d7e2ed" stroke-width="0.6"/><rect x="80" y="44" width="9" height="7" fill="#1fa6a2" stroke="#d7e2ed" stroke-width="0.6"/><rect x="90" y="44" width="9" height="7" fill="#1fa6a2" stroke="#d7e2ed" stroke-width="0.6"/><rect x="100" y="44" width="9" height="7" fill="#ffffff" stroke="#d7e2ed" stroke-width="0.6"/><rect x="110" y="44" width="9" height="7" fill="#ffffff" stroke="#d7e2ed" stroke-width="0.6"/><rect x="120" y="44" width="9" height="7" fill="#ffffff" stroke="#d7e2ed" stroke-width="0.6"/><rect x="30" y="52" width="9" height="7" fill="#ffffff" stroke="#d7e2ed" stroke-width="0.6"/><rect x="40" y="52" width="9" height="7" fill="#ffffff" stroke="#d7e2ed" stroke-width="0.6"/><rect x="50" y="52" width="9" height="7" fill="#ffffff" stroke="#d7e2ed" stroke-width="0.6"/><rect x="60" y="52" width="9" height="7" fill="#ffffff" stroke="#d7e2ed" stroke-width="0.6"/><rect x="70" y="52" width="9" height="7" fill="#ffffff" stroke="#d7e2ed" stroke-width="0.6"/><rect x="80" y="52" width="9" height="7" fill="#ffffff" stroke="#d7e2ed" stroke-width="0.6"/><rect x="90" y="52" width="9" height="7" fill="#ffffff" stroke="#d7e2ed" stroke-width="0.6"/><rect x="100" y="52" width="9" height="7" fill="#ffffff" stroke="#d7e2ed" stroke-width="0.6"/><rect x="110" y="52" width="9" height="7" fill="#ffffff" stroke="#d7e2ed" stroke-width="0.6"/><rect x="120" y="52" width="9" height="7" fill="#ffffff" stroke="#d7e2ed" stroke-width="0.6"/><rect x="30" y="60" width="9" height="7" fill="#ffffff" stroke="#d7e2ed" stroke-width="0.6"/><rect x="40" y="60" width="9" height="7" fill="#ffffff" stroke="#d7e2ed" stroke-width="0.6"/><rect x="50" y="60" width="9" height="7" fill="#ffffff" stroke="#d7e2ed" stroke-width="0.6"/><rect x="60" y="60" width="9" height="7" fill="#ffffff" stroke="#d7e2ed" stroke-width="0.6"/><rect x="70" y="60" width="9" height="7" fill="#ffffff" stroke="#d7e2ed" stroke-width="0.6"/><rect x="80" y="60" width="9" height="7" fill="#ffffff" stroke="#d7e2ed" stroke-width="0.6"/><rect x="90" y="60" width="9" height="7" fill="#ffffff" stroke="#d7e2ed" stroke-width="0.6"/><rect x="100" y="60" width="9" height="7" fill="#ffffff" stroke="#d7e2ed" stroke-width="0.6"/><rect x="110" y="60" width="9" height="7" fill="#ffffff" stroke="#d7e2ed" stroke-width="0.6"/><rect x="120" y="60" width="9" height="7" fill="#ffffff" stroke="#d7e2ed" stroke-width="0.6"/><rect x="30" y="68" width="9" height="7" fill="#ffffff" stroke="#d7e2ed" stroke-width="0.6"/><rect x="40" y="68" width="9" height="7" fill="#ffffff" stroke="#d7e2ed" stroke-width="0.6"/><rect x="50" y="68" width="9" height="7" fill="#ffffff" stroke="#d7e2ed" stroke-width="0.6"/><rect x="60" y="68" width="9" height="7" fill="#ffffff" stroke="#d7e2ed" stroke-width="0.6"/><rect x="70" y="68" width="9" height="7" fill="#ffffff" stroke="#d7e2ed" stroke-width="0.6"/><rect x="80" y="68" width="9" height="7" fill="#ffffff" stroke="#d7e2ed" stroke-width="0.6"/><rect x="90" y="68" width="9" height="7" fill="#ffffff" stroke="#d7e2ed" stroke-width="0.6"/><rect x="100" y="68" width="9" height="7" fill="#ffffff" stroke="#d7e2ed" stroke-width="0.6"/><rect x="110" y="68" width="9" height="7" fill="#ffffff" stroke="#d7e2ed" stroke-width="0.6"/><rect x="120" y="68" width="9" height="7" fill="#ffffff" stroke="#d7e2ed" stroke-width="0.6"/><rect x="30" y="76" width="9" height="7" fill="#ffffff" stroke="#d7e2ed" stroke-width="0.6"/><rect x="40" y="76" width="9" height="7" fill="#ffffff" stroke="#d7e2ed" stroke-width="0.6"/><rect x="50" y="76" width="9" height="7" fill="#ffffff" stroke="#d7e2ed" stroke-width="0.6"/><rect x="60" y="76" width="9" height="7" fill="#ffffff" stroke="#d7e2ed" stroke-width="0.6"/><rect x="70" y="76" width="9" height="7" fill="#ffffff" stroke="#d7e2ed" stroke-width="0.6"/><rect x="80" y="76" width="9" height="7" fill="#ffffff" stroke="#d7e2ed" stroke-width="0.6"/><rect x="90" y="76" width="9" height="7" fill="#ffffff" stroke="#d7e2ed" stroke-width="0.6"/><rect x="100" y="76" width="9" height="7" fill="#ffffff" stroke="#d7e2ed" stroke-width="0.6"/><rect x="110" y="76" width="9" height="7" fill="#ffffff" stroke="#d7e2ed" stroke-width="0.6"/><rect x="120" y="76" width="9" height="7" fill="#ffffff" stroke="#d7e2ed" stroke-width="0.6"/><rect x="30" y="84" width="9" height="7" fill="#ffffff" stroke="#d7e2ed" stroke-width="0.6"/><rect x="40" y="84" width="9" height="7" fill="#ffffff" stroke="#d7e2ed" stroke-width="0.6"/><rect x="50" y="84" width="9" height="7" fill="#ffffff" stroke="#d7e2ed" stroke-width="0.6"/><rect x="60" y="84" width="9" height="7" fill="#ffffff" stroke="#d7e2ed" stroke-width="0.6"/><rect x="70" y="84" width="9" height="7" fill="#ffffff" stroke="#d7e2ed" stroke-width="0.6"/><rect x="80" y="84" width="9" height="7" fill="#ffffff" stroke="#d7e2ed" stroke-width="0.6"/><rect x="90" y="84" width="9" height="7" fill="#ffffff" stroke="#d7e2ed" stroke-width="0.6"/><rect x="100" y="84" width="9" height="7" fill="#ffffff" stroke="#d7e2ed" stroke-width="0.6"/><rect x="110" y="84" width="9" height="7" fill="#ffffff" stroke="#d7e2ed" stroke-width="0.6"/><rect x="120" y="84" width="9" height="7" fill="#ffffff" stroke="#d7e2ed" stroke-width="0.6"/><rect x="30" y="92" width="9" height="7" fill="#ffffff" stroke="#d7e2ed" stroke-width="0.6"/><rect x="40" y="92" width="9" height="7" fill="#ffffff" stroke="#d7e2ed" stroke-width="0.6"/><rect x="50" y="92" width="9" height="7" fill="#ffffff" stroke="#d7e2ed" stroke-width="0.6"/><rect x="60" y="92" width="9" height="7" fill="#ffffff" stroke="#d7e2ed" stroke-width="0.6"/><rect x="70" y="92" width="9" height="7" fill="#ffffff" stroke="#d7e2ed" stroke-width="0.6"/><rect x="80" y="92" width="9" height="7" fill="#ffffff" stroke="#d7e2ed" stroke-width="0.6"/><rect x="90" y="92" width="9" height="7" fill="#ffffff" stroke="#d7e2ed" stroke-width="0.6"/><rect x="100" y="92" width="9" height="7" fill="#ffffff" stroke="#d7e2ed" stroke-width="0.6"/><rect x="110" y="92" width="9" height="7" fill="#ffffff" stroke="#d7e2ed" stroke-width="0.6"/><rect x="120" y="92" width="9" height="7" fill="#ffffff" stroke="#d7e2ed" stroke-width="0.6"/></g>
<text x="80" y="116" font-family="Outfit, system-ui, sans-serif" font-size="11" font-weight="800" fill="#12355b" text-anchor="middle">0.37</text>
</svg>
