<svg xmlns="http://www.w3.org/2000/svg" viewBox="0 0 160 120" role="img" aria-labelledby="t">
<title id="t">Positive: right of zero</title>
<rect x="0" y="0" width="160" height="120" rx="10" fill="#f7f4ec"/>
<line x1="14" y1="60" x2="146" y2="60" stroke="#12355b" stroke-width="2.5"/>
<polygon points="146,60 138,55 138,65" fill="#12355b"/>
<polygon points="14,60 22,55 22,65" fill="#12355b"/>
<line x1="26" y1="54" x2="26" y2="66" stroke="#12355b" stroke-width="1.5"/><text x="26" y="82" font-family="Outfit, system-ui, sans-serif" font-size="9" font-weight="800" fill="#21313f" text-anchor="middle">-3</text><line x1="44" y1="54" x2="44" y2="66" stroke="#12355b" stroke-width="1.5"/><text x="44" y="82" font-family="Outfit, system-ui, sans-serif" font-size="9" font-weight="800" fill="#21313f" text-anchor="middle">-2</text><line x1="62" y1="54" x2="62" y2="66" stroke="#12355b" stroke-width="1.5"/><text x="62" y="82" font-family="Outfit, system-ui, sans-serif" font-size="9" font-weight="800" fill="#21313f" text-anchor="middle">-1</text><line x1="80" y1="54" x2="80" y2="66" stroke="#12355b" stroke-width="1.5"/><text x="80" y="82" font-family="Outfit, system-ui, sans-serif" font-size="9" font-weight="800" fill="#21313f" text-anchor="middle">0</text><line x1="98" y1="54" x2="98" y2="66" stroke="#12355b" stroke-width="1.5"/><text x="98" y="82" font-family="Outfit, system-ui, sans-serif" font-size="9" font-weight="800" fill="#21313f" text-anchor="middle">1</text><line x1="116" y1="54" x2="116" y2="66" stroke="#12355b" stroke-width="1.5"/><text x="116" y="82" font-family="Outfit, system-ui, sans-serif" font-size="9" font-weight="800" fill="#21313f" text-anchor="middle">2</text><line x1="134" y1="54" x2="134" y2="66" stroke="#12355b" stroke-width="1.5"/><text x="134" y="82" font-family="Outfit, system-ui, sans-serif" font-size="9" font-weight="800" fill="#21313f" text-anchor="middle">3</text>
<circle cx="134" cy="60" r="6" fill="#d9795d"/>
<text x="80" y="26" font-family="Outfit, system-ui, sans-serif" font-size="11" font-weight="800" fill="#12355b" text-anchor="middle">0 → positive</text>
</svg>
