<svg xmlns="http://www.w3.org/2000/svg" viewBox="0 0 160 120" role="img" aria-labelledby="t">
<title id="t">Rhombus: both pairs of opposite sides are parallel and all four sides are equal</title>
<rect x="0" y="0" width="160" height="120" rx="10" fill="#f7f4ec"/>
<polygon points="80,18 128,54 80,90 32,54" fill="#cfe6e5" stroke="#12355b" stroke-width="2" stroke-linejoin="round"/>
<g transform="translate(104.0 36.0) rotate(36.9)"><path d="M-4,-5 L2,0 L-4,5" fill="none" stroke="#1fa6a2" stroke-width="2" stroke-linecap="round" stroke-linejoin="round"/></g>
<g transform="translate(56.0 72.0) rotate(36.9)"><path d="M-4,-5 L2,0 L-4,5" fill="none" stroke="#1fa6a2" stroke-width="2" stroke-linecap="round" stroke-linejoin="round"/></g>
<g transform="translate(56.0 36.0) rotate(143.1)"><path d="M-7,-5 L-1,0 L-7,5" fill="none" stroke="#1fa6a2" stroke-width="2" stroke-linecap="round" stroke-linejoin="round"/><path d="M-1,-5 L5,0 L-1,5" fill="none" stroke="#1fa6a2" stroke-width="2" stroke-linecap="round" stroke-linejoin="round"/></g>
<g transform="translate(104.0 72.0) rotate(143.1)"><path d="M-7,-5 L-1,0 L-7,5" fill="none" stroke="#1fa6a2" stroke-width="2" stroke-linecap="round" stroke-linejoin="round"/><path d="M-1,-5 L5,0 L-1,5" fill="none" stroke="#1fa6a2" stroke-width="2" stroke-linecap="round" stroke-linejoin="round"/></g>
<text x="80" y="106" font-family="Outfit, system-ui, sans-serif" font-size="8.5" font-weight="800" fill="#1fa6a2" text-anchor="middle">2 parallel pairs, all sides equal</text>
<text x="80" y="117" font-family="Outfit, system-ui, sans-serif" font-size="8" font-weight="800" fill="#54677c" text-anchor="middle">› one pair   ›› the other pair</text>
</svg>
