<svg xmlns="http://www.w3.org/2000/svg" viewBox="0 0 160 120" role="img" aria-labelledby="t">
<title id="t">Volume: stack of unit cubes</title>
<rect x="0" y="0" width="160" height="120" rx="10" fill="#f7f4ec"/>
<polygon points="44,70 58,62 66,69 52,77" fill="#dff2ee"/>
<polygon points="44,70 44,84 52,91 52,77" fill="#1fa6a2"/>
<polygon points="52,77 66,69 66,83 52,91" fill="#12355b"/><polygon points="58,70 72,62 80,69 66,77" fill="#dff2ee"/>
<polygon points="58,70 58,84 66,91 66,77" fill="#1fa6a2"/>
<polygon points="66,77 80,69 80,83 66,91" fill="#12355b"/><polygon points="72,70 86,62 94,69 80,77" fill="#dff2ee"/>
<polygon points="72,70 72,84 80,91 80,77" fill="#1fa6a2"/>
<polygon points="80,77 94,69 94,83 80,91" fill="#12355b"/><polygon points="44,56 58,48 66,55 52,63" fill="#dff2ee"/>
<polygon points="44,56 44,70 52,77 52,63" fill="#1fa6a2"/>
<polygon points="52,63 66,55 66,69 52,77" fill="#12355b"/><polygon points="58,56 72,48 80,55 66,63" fill="#dff2ee"/>
<polygon points="58,56 58,70 66,77 66,63" fill="#1fa6a2"/>
<polygon points="66,63 80,55 80,69 66,77" fill="#12355b"/><polygon points="72,56 86,48 94,55 80,63" fill="#dff2ee"/>
<polygon points="72,56 72,70 80,77 80,63" fill="#1fa6a2"/>
<polygon points="80,63 94,55 94,69 80,77" fill="#12355b"/><polygon points="36,62 50,54 58,61 44,69" fill="#dff2ee"/>
<polygon points="36,62 36,76 44,83 44,69" fill="#1fa6a2"/>
<polygon points="44,69 58,61 58,75 44,83" fill="#12355b"/><polygon points="50,62 64,54 72,61 58,69" fill="#dff2ee"/>
<polygon points="50,62 50,76 58,83 58,69" fill="#1fa6a2"/>
<polygon points="58,69 72,61 72,75 58,83" fill="#12355b"/><polygon points="64,62 78,54 86,61 72,69" fill="#dff2ee"/>
<polygon points="64,62 64,76 72,83 72,69" fill="#1fa6a2"/>
<polygon points="72,69 86,61 86,75 72,83" fill="#12355b"/><polygon points="36,48 50,40 58,47 44,55" fill="#dff2ee"/>
<polygon points="36,48 36,62 44,69 44,55" fill="#1fa6a2"/>
<polygon points="44,55 58,47 58,61 44,69" fill="#12355b"/><polygon points="50,48 64,40 72,47 58,55" fill="#dff2ee"/>
<polygon points="50,48 50,62 58,69 58,55" fill="#1fa6a2"/>
<polygon points="58,55 72,47 72,61 58,69" fill="#12355b"/><polygon points="64,48 78,40 86,47 72,55" fill="#dff2ee"/>
<polygon points="64,48 64,62 72,69 72,55" fill="#1fa6a2"/>
<polygon points="72,55 86,47 86,61 72,69" fill="#12355b"/><text x="80" y="112" font-family="Outfit, system-ui, sans-serif" font-size="11" font-weight="800" fill="#12355b" text-anchor="middle">unit cubes</text>
</svg>
